solid OpenSCAD_Model
  facet normal -1 0 0
    outer loop
      vertex -9.2 -25.8 1
      vertex -9.2 -25.8 -1.12668e-15
      vertex -9.2 -97.54 1
    endloop
  endfacet
  facet normal -1 0 0
    outer loop
      vertex -9.2 -97.54 1
      vertex -9.2 -25.8 -1.12668e-15
      vertex -9.2 -97.54 7.65894e-15
    endloop
  endfacet
  facet normal 0 1 -1.22465e-16
    outer loop
      vertex -9.2 -25.8 1
      vertex 107.78 -25.8 1
      vertex -9.2 -25.8 -1.12668e-15
    endloop
  endfacet
  facet normal 0 1 -1.22465e-16
    outer loop
      vertex -9.2 -25.8 -1.12668e-15
      vertex 107.78 -25.8 1
      vertex 107.78 -25.8 -1.12668e-15
    endloop
  endfacet
  facet normal 0 1.22465e-16 1
    outer loop
      vertex -6.4 -94.74 1
      vertex -9.2 -25.8 1
      vertex -9.2 -97.54 1
    endloop
  endfacet
  facet normal 0 1.22465e-16 1
    outer loop
      vertex -6.4 -28.6 1
      vertex -9.2 -25.8 1
      vertex -6.4 -94.74 1
    endloop
  endfacet
  facet normal 0 1.22465e-16 1
    outer loop
      vertex 107.78 -25.8 1
      vertex -9.2 -25.8 1
      vertex -6.4 -28.6 1
    endloop
  endfacet
  facet normal 0 1.22465e-16 1
    outer loop
      vertex 102.78 -94.74 1
      vertex 102.78 -28.6 1
      vertex 102.78 -30.8 1
    endloop
  endfacet
  facet normal 0 1.22465e-16 1
    outer loop
      vertex 107.78 -25.8 1
      vertex -6.4 -28.6 1
      vertex -4.2 -28.6 1
    endloop
  endfacet
  facet normal 0 1.22465e-16 1
    outer loop
      vertex 107.78 -97.54 1
      vertex -4.2 -94.74 1
      vertex -9.2 -97.54 1
    endloop
  endfacet
  facet normal 0 1.22465e-16 1
    outer loop
      vertex 52 -77.672 1
      vertex 52 -45.668 1
      vertex 49 -77.672 1
    endloop
  endfacet
  facet normal 0 1.22465e-16 1
    outer loop
      vertex 104.98 -28.6 1
      vertex 104.98 -94.74 1
      vertex 107.78 -97.54 1
    endloop
  endfacet
  facet normal 0 1.22465e-16 1
    outer loop
      vertex 10 -77.672 1
      vertex -4.2 -30.8 1
      vertex -4.2 -92.54 1
    endloop
  endfacet
  facet normal 0 1.22465e-16 1
    outer loop
      vertex -4.2 -92.54 1
      vertex 102.78 -92.54 1
      vertex 25 -77.672 1
    endloop
  endfacet
  facet normal 0 1.22465e-16 1
    outer loop
      vertex 13 -77.672 1
      vertex 10 -77.672 1
      vertex -4.2 -92.54 1
    endloop
  endfacet
  facet normal 0 1.22465e-16 1
    outer loop
      vertex 10 -45.668 1
      vertex -4.2 -30.8 1
      vertex 10 -77.672 1
    endloop
  endfacet
  facet normal 0 1.22465e-16 1
    outer loop
      vertex -4.2 -28.6 1
      vertex 102.78 -28.6 1
      vertex 107.78 -25.8 1
    endloop
  endfacet
  facet normal 0 1.22465e-16 1
    outer loop
      vertex 16 -77.672 1
      vertex 13 -77.672 1
      vertex -4.2 -92.54 1
    endloop
  endfacet
  facet normal 0 1.22465e-16 1
    outer loop
      vertex 19 -77.672 1
      vertex 16 -77.672 1
      vertex -4.2 -92.54 1
    endloop
  endfacet
  facet normal 0 1.22465e-16 1
    outer loop
      vertex 16 -77.672 1
      vertex 16 -45.668 1
      vertex 13 -77.672 1
    endloop
  endfacet
  facet normal 0 1.22465e-16 1
    outer loop
      vertex -4.2 -28.6 1
      vertex -4.2 -92.54 1
      vertex -4.2 -30.8 1
    endloop
  endfacet
  facet normal 0 1.22465e-16 1
    outer loop
      vertex 19 -45.668 1
      vertex 19 -77.672 1
      vertex 22 -45.668 1
    endloop
  endfacet
  facet normal 0 1.22465e-16 1
    outer loop
      vertex 22 -77.672 1
      vertex 22 -45.668 1
      vertex 19 -77.672 1
    endloop
  endfacet
  facet normal 0 1.22465e-16 1
    outer loop
      vertex 22 -77.672 1
      vertex 19 -77.672 1
      vertex -4.2 -92.54 1
    endloop
  endfacet
  facet normal 0 1.22465e-16 1
    outer loop
      vertex 43 -45.668 1
      vertex 43 -77.672 1
      vertex 46 -45.668 1
    endloop
  endfacet
  facet normal 0 1.22465e-16 1
    outer loop
      vertex -4.2 -92.54 1
      vertex 25 -77.672 1
      vertex 22 -77.672 1
    endloop
  endfacet
  facet normal 0 1.22465e-16 1
    outer loop
      vertex 102.78 -92.54 1
      vertex 28 -77.672 1
      vertex 25 -77.672 1
    endloop
  endfacet
  facet normal 0 1.22465e-16 1
    outer loop
      vertex 55 -45.668 1
      vertex 55 -77.672 1
      vertex 58 -45.668 1
    endloop
  endfacet
  facet normal 0 1.22465e-16 1
    outer loop
      vertex 102.78 -92.54 1
      vertex 31 -77.672 1
      vertex 28 -77.672 1
    endloop
  endfacet
  facet normal 0 1.22465e-16 1
    outer loop
      vertex 102.78 -92.54 1
      vertex 34 -77.672 1
      vertex 31 -77.672 1
    endloop
  endfacet
  facet normal 0 1.22465e-16 1
    outer loop
      vertex 28 -77.672 1
      vertex 28 -45.668 1
      vertex 25 -77.672 1
    endloop
  endfacet
  facet normal 0 1.22465e-16 1
    outer loop
      vertex 61 -45.668 1
      vertex 61 -77.672 1
      vertex 102.78 -30.8 1
    endloop
  endfacet
  facet normal 0 1.22465e-16 1
    outer loop
      vertex 102.78 -92.54 1
      vertex 37 -77.672 1
      vertex 34 -77.672 1
    endloop
  endfacet
  facet normal 0 1.22465e-16 1
    outer loop
      vertex 102.78 -92.54 1
      vertex 40 -77.672 1
      vertex 37 -77.672 1
    endloop
  endfacet
  facet normal 0 1.22465e-16 1
    outer loop
      vertex 58 -77.672 1
      vertex 58 -45.668 1
      vertex 55 -77.672 1
    endloop
  endfacet
  facet normal 0 1.22465e-16 1
    outer loop
      vertex 34 -77.672 1
      vertex 34 -45.668 1
      vertex 31 -77.672 1
    endloop
  endfacet
  facet normal 0 1.22465e-16 1
    outer loop
      vertex 49 -45.668 1
      vertex 49 -77.672 1
      vertex 52 -45.668 1
    endloop
  endfacet
  facet normal 0 1.22465e-16 1
    outer loop
      vertex 102.78 -92.54 1
      vertex 43 -77.672 1
      vertex 40 -77.672 1
    endloop
  endfacet
  facet normal 0 1.22465e-16 1
    outer loop
      vertex 102.78 -92.54 1
      vertex 46 -77.672 1
      vertex 43 -77.672 1
    endloop
  endfacet
  facet normal 0 1.22465e-16 1
    outer loop
      vertex 37 -45.668 1
      vertex 37 -77.672 1
      vertex 40 -45.668 1
    endloop
  endfacet
  facet normal 0 1.22465e-16 1
    outer loop
      vertex 102.78 -92.54 1
      vertex 49 -77.672 1
      vertex 46 -77.672 1
    endloop
  endfacet
  facet normal 0 1.22465e-16 1
    outer loop
      vertex 102.78 -94.74 1
      vertex 102.78 -30.8 1
      vertex 102.78 -92.54 1
    endloop
  endfacet
  facet normal 0 1.22465e-16 1
    outer loop
      vertex 102.78 -92.54 1
      vertex 52 -77.672 1
      vertex 49 -77.672 1
    endloop
  endfacet
  facet normal 0 1.22465e-16 1
    outer loop
      vertex 40 -77.672 1
      vertex 40 -45.668 1
      vertex 37 -77.672 1
    endloop
  endfacet
  facet normal 0 1.22465e-16 1
    outer loop
      vertex 25 -45.668 1
      vertex 25 -77.672 1
      vertex 28 -45.668 1
    endloop
  endfacet
  facet normal 0 1.22465e-16 1
    outer loop
      vertex 102.78 -92.54 1
      vertex 55 -77.672 1
      vertex 52 -77.672 1
    endloop
  endfacet
  facet normal 0 1.22465e-16 1
    outer loop
      vertex 104.98 -94.74 1
      vertex 102.78 -94.74 1
      vertex 107.78 -97.54 1
    endloop
  endfacet
  facet normal 0 1.22465e-16 1
    outer loop
      vertex 102.78 -92.54 1
      vertex 58 -77.672 1
      vertex 55 -77.672 1
    endloop
  endfacet
  facet normal 0 1.22465e-16 1
    outer loop
      vertex 13 -45.668 1
      vertex 13 -77.672 1
      vertex 16 -45.668 1
    endloop
  endfacet
  facet normal 0 1.22465e-16 1
    outer loop
      vertex 102.78 -92.54 1
      vertex 61 -77.672 1
      vertex 58 -77.672 1
    endloop
  endfacet
  facet normal 0 1.22465e-16 1
    outer loop
      vertex 102.78 -92.54 1
      vertex 102.78 -30.8 1
      vertex 61 -77.672 1
    endloop
  endfacet
  facet normal 0 1.22465e-16 1
    outer loop
      vertex 107.78 -97.54 1
      vertex 102.78 -94.74 1
      vertex -4.2 -94.74 1
    endloop
  endfacet
  facet normal 0 1.22465e-16 1
    outer loop
      vertex 102.78 -28.6 1
      vertex 104.98 -28.6 1
      vertex 107.78 -25.8 1
    endloop
  endfacet
  facet normal 0 1.22465e-16 1
    outer loop
      vertex 107.78 -97.54 1
      vertex 107.78 -25.8 1
      vertex 104.98 -28.6 1
    endloop
  endfacet
  facet normal 0 1.22465e-16 1
    outer loop
      vertex -4.2 -94.74 1
      vertex -6.4 -94.74 1
      vertex -9.2 -97.54 1
    endloop
  endfacet
  facet normal 0 1.22465e-16 1
    outer loop
      vertex 31 -45.668 1
      vertex 31 -77.672 1
      vertex 34 -45.668 1
    endloop
  endfacet
  facet normal 0 1.22465e-16 1
    outer loop
      vertex -4.2 -28.6 1
      vertex -4.2 -94.74 1
      vertex -4.2 -92.54 1
    endloop
  endfacet
  facet normal 0 1.22465e-16 1
    outer loop
      vertex 46 -77.672 1
      vertex 46 -45.668 1
      vertex 43 -77.672 1
    endloop
  endfacet
  facet normal 0 1.22465e-16 1
    outer loop
      vertex 102.78 -30.8 1
      vertex 58 -45.668 1
      vertex 61 -45.668 1
    endloop
  endfacet
  facet normal 0 1.22465e-16 1
    outer loop
      vertex 102.78 -30.8 1
      vertex 55 -45.668 1
      vertex 58 -45.668 1
    endloop
  endfacet
  facet normal 0 1.22465e-16 1
    outer loop
      vertex 102.78 -30.8 1
      vertex 52 -45.668 1
      vertex 55 -45.668 1
    endloop
  endfacet
  facet normal 0 1.22465e-16 1
    outer loop
      vertex 102.78 -30.8 1
      vertex 49 -45.668 1
      vertex 52 -45.668 1
    endloop
  endfacet
  facet normal 0 1.22465e-16 1
    outer loop
      vertex 102.78 -30.8 1
      vertex 46 -45.668 1
      vertex 49 -45.668 1
    endloop
  endfacet
  facet normal 0 1.22465e-16 1
    outer loop
      vertex 102.78 -30.8 1
      vertex 43 -45.668 1
      vertex 46 -45.668 1
    endloop
  endfacet
  facet normal 0 1.22465e-16 1
    outer loop
      vertex 102.78 -30.8 1
      vertex 40 -45.668 1
      vertex 43 -45.668 1
    endloop
  endfacet
  facet normal 0 1.22465e-16 1
    outer loop
      vertex 102.78 -30.8 1
      vertex 37 -45.668 1
      vertex 40 -45.668 1
    endloop
  endfacet
  facet normal 0 1.22465e-16 1
    outer loop
      vertex 102.78 -30.8 1
      vertex 34 -45.668 1
      vertex 37 -45.668 1
    endloop
  endfacet
  facet normal 0 1.22465e-16 1
    outer loop
      vertex 102.78 -30.8 1
      vertex 31 -45.668 1
      vertex 34 -45.668 1
    endloop
  endfacet
  facet normal 0 1.22465e-16 1
    outer loop
      vertex 102.78 -30.8 1
      vertex 28 -45.668 1
      vertex 31 -45.668 1
    endloop
  endfacet
  facet normal 0 1.22465e-16 1
    outer loop
      vertex 102.78 -30.8 1
      vertex 25 -45.668 1
      vertex 28 -45.668 1
    endloop
  endfacet
  facet normal 0 1.22465e-16 1
    outer loop
      vertex 102.78 -30.8 1
      vertex 22 -45.668 1
      vertex 25 -45.668 1
    endloop
  endfacet
  facet normal 0 1.22465e-16 1
    outer loop
      vertex 102.78 -30.8 1
      vertex 19 -45.668 1
      vertex 22 -45.668 1
    endloop
  endfacet
  facet normal 0 1.22465e-16 1
    outer loop
      vertex 102.78 -30.8 1
      vertex 16 -45.668 1
      vertex 19 -45.668 1
    endloop
  endfacet
  facet normal 0 1.22465e-16 1
    outer loop
      vertex 102.78 -30.8 1
      vertex 13 -45.668 1
      vertex 16 -45.668 1
    endloop
  endfacet
  facet normal 0 1.22465e-16 1
    outer loop
      vertex 102.78 -30.8 1
      vertex 10 -45.668 1
      vertex 13 -45.668 1
    endloop
  endfacet
  facet normal 0 1.22465e-16 1
    outer loop
      vertex 102.78 -30.8 1
      vertex -4.2 -30.8 1
      vertex 10 -45.668 1
    endloop
  endfacet
  facet normal 0 -1 1.22465e-16
    outer loop
      vertex 107.78 -97.54 1
      vertex -9.2 -97.54 1
      vertex -9.2 -97.54 7.65894e-15
    endloop
  endfacet
  facet normal 0 -1 1.22465e-16
    outer loop
      vertex 107.78 -97.54 7.65894e-15
      vertex 107.78 -97.54 1
      vertex -9.2 -97.54 7.65894e-15
    endloop
  endfacet
  facet normal 0 -1.22465e-16 -1
    outer loop
      vertex 61 -77.672 5.22581e-15
      vertex 107.78 -25.8 -1.12668e-15
      vertex 107.78 -97.54 7.65894e-15
    endloop
  endfacet
  facet normal 0 -1.22465e-16 -1
    outer loop
      vertex -9.2 -25.8 -1.12668e-15
      vertex 107.78 -25.8 -1.12668e-15
      vertex 10 -45.668 1.30645e-15
    endloop
  endfacet
  facet normal 0 -1.22465e-16 -1
    outer loop
      vertex -9.2 -25.8 -1.12668e-15
      vertex 10 -45.668 1.30645e-15
      vertex -9.2 -97.54 7.65894e-15
    endloop
  endfacet
  facet normal 0 -1.22465e-16 -1
    outer loop
      vertex 10 -45.668 1.30645e-15
      vertex 10 -77.672 5.22581e-15
      vertex -9.2 -97.54 7.65894e-15
    endloop
  endfacet
  facet normal 0 -1.22465e-16 -1
    outer loop
      vertex 10 -77.672 5.22581e-15
      vertex 13 -77.672 5.22581e-15
      vertex -9.2 -97.54 7.65894e-15
    endloop
  endfacet
  facet normal 0 -1.22465e-16 -1
    outer loop
      vertex 10 -45.668 1.30645e-15
      vertex 107.78 -25.8 -1.12668e-15
      vertex 13 -45.668 1.30645e-15
    endloop
  endfacet
  facet normal 0 -1.22465e-16 -1
    outer loop
      vertex 13 -45.668 1.30645e-15
      vertex 107.78 -25.8 -1.12668e-15
      vertex 16 -45.668 1.30645e-15
    endloop
  endfacet
  facet normal 0 -1.22465e-16 -1
    outer loop
      vertex 16 -77.672 5.22581e-15
      vertex 13 -77.672 5.22581e-15
      vertex 16 -45.668 1.30645e-15
    endloop
  endfacet
  facet normal 0 -1.22465e-16 -1
    outer loop
      vertex 13 -77.672 5.22581e-15
      vertex 16 -77.672 5.22581e-15
      vertex -9.2 -97.54 7.65894e-15
    endloop
  endfacet
  facet normal 0 -1.22465e-16 -1
    outer loop
      vertex 16 -77.672 5.22581e-15
      vertex 19 -77.672 5.22581e-15
      vertex -9.2 -97.54 7.65894e-15
    endloop
  endfacet
  facet normal 0 -1.22465e-16 -1
    outer loop
      vertex 16 -45.668 1.30645e-15
      vertex 107.78 -25.8 -1.12668e-15
      vertex 19 -45.668 1.30645e-15
    endloop
  endfacet
  facet normal 0 -1.22465e-16 -1
    outer loop
      vertex 19 -45.668 1.30645e-15
      vertex 107.78 -25.8 -1.12668e-15
      vertex 22 -45.668 1.30645e-15
    endloop
  endfacet
  facet normal 0 -1.22465e-16 -1
    outer loop
      vertex 28 -77.672 5.22581e-15
      vertex 25 -77.672 5.22581e-15
      vertex 28 -45.668 1.30645e-15
    endloop
  endfacet
  facet normal 0 -1.22465e-16 -1
    outer loop
      vertex 25 -77.672 5.22581e-15
      vertex -9.2 -97.54 7.65894e-15
      vertex 22 -77.672 5.22581e-15
    endloop
  endfacet
  facet normal 0 -1.22465e-16 -1
    outer loop
      vertex 19 -77.672 5.22581e-15
      vertex 22 -77.672 5.22581e-15
      vertex -9.2 -97.54 7.65894e-15
    endloop
  endfacet
  facet normal 0 -1.22465e-16 -1
    outer loop
      vertex 49 -45.668 1.30645e-15
      vertex 52 -45.668 1.30645e-15
      vertex 49 -77.672 5.22581e-15
    endloop
  endfacet
  facet normal 0 -1.22465e-16 -1
    outer loop
      vertex -9.2 -97.54 7.65894e-15
      vertex 25 -77.672 5.22581e-15
      vertex 107.78 -97.54 7.65894e-15
    endloop
  endfacet
  facet normal 0 -1.22465e-16 -1
    outer loop
      vertex 22 -45.668 1.30645e-15
      vertex 107.78 -25.8 -1.12668e-15
      vertex 25 -45.668 1.30645e-15
    endloop
  endfacet
  facet normal 0 -1.22465e-16 -1
    outer loop
      vertex 25 -45.668 1.30645e-15
      vertex 107.78 -25.8 -1.12668e-15
      vertex 28 -45.668 1.30645e-15
    endloop
  endfacet
  facet normal 0 -1.22465e-16 -1
    outer loop
      vertex 40 -77.672 5.22581e-15
      vertex 37 -77.672 5.22581e-15
      vertex 40 -45.668 1.30645e-15
    endloop
  endfacet
  facet normal 0 -1.22465e-16 -1
    outer loop
      vertex 25 -77.672 5.22581e-15
      vertex 28 -77.672 5.22581e-15
      vertex 107.78 -97.54 7.65894e-15
    endloop
  endfacet
  facet normal 0 -1.22465e-16 -1
    outer loop
      vertex 28 -77.672 5.22581e-15
      vertex 31 -77.672 5.22581e-15
      vertex 107.78 -97.54 7.65894e-15
    endloop
  endfacet
  facet normal 0 -1.22465e-16 -1
    outer loop
      vertex 28 -45.668 1.30645e-15
      vertex 107.78 -25.8 -1.12668e-15
      vertex 31 -45.668 1.30645e-15
    endloop
  endfacet
  facet normal 0 -1.22465e-16 -1
    outer loop
      vertex 31 -45.668 1.30645e-15
      vertex 107.78 -25.8 -1.12668e-15
      vertex 34 -45.668 1.30645e-15
    endloop
  endfacet
  facet normal 0 -1.22465e-16 -1
    outer loop
      vertex 52 -77.672 5.22581e-15
      vertex 49 -77.672 5.22581e-15
      vertex 52 -45.668 1.30645e-15
    endloop
  endfacet
  facet normal 0 -1.22465e-16 -1
    outer loop
      vertex 31 -77.672 5.22581e-15
      vertex 34 -77.672 5.22581e-15
      vertex 107.78 -97.54 7.65894e-15
    endloop
  endfacet
  facet normal 0 -1.22465e-16 -1
    outer loop
      vertex 34 -77.672 5.22581e-15
      vertex 37 -77.672 5.22581e-15
      vertex 107.78 -97.54 7.65894e-15
    endloop
  endfacet
  facet normal 0 -1.22465e-16 -1
    outer loop
      vertex 34 -45.668 1.30645e-15
      vertex 107.78 -25.8 -1.12668e-15
      vertex 37 -45.668 1.30645e-15
    endloop
  endfacet
  facet normal 0 -1.22465e-16 -1
    outer loop
      vertex 37 -45.668 1.30645e-15
      vertex 107.78 -25.8 -1.12668e-15
      vertex 40 -45.668 1.30645e-15
    endloop
  endfacet
  facet normal 0 -1.22465e-16 -1
    outer loop
      vertex 55 -45.668 1.30645e-15
      vertex 58 -45.668 1.30645e-15
      vertex 55 -77.672 5.22581e-15
    endloop
  endfacet
  facet normal 0 -1.22465e-16 -1
    outer loop
      vertex 37 -77.672 5.22581e-15
      vertex 40 -77.672 5.22581e-15
      vertex 107.78 -97.54 7.65894e-15
    endloop
  endfacet
  facet normal 0 -1.22465e-16 -1
    outer loop
      vertex 40 -77.672 5.22581e-15
      vertex 43 -77.672 5.22581e-15
      vertex 107.78 -97.54 7.65894e-15
    endloop
  endfacet
  facet normal 0 -1.22465e-16 -1
    outer loop
      vertex 40 -45.668 1.30645e-15
      vertex 107.78 -25.8 -1.12668e-15
      vertex 43 -45.668 1.30645e-15
    endloop
  endfacet
  facet normal 0 -1.22465e-16 -1
    outer loop
      vertex 58 -77.672 5.22581e-15
      vertex 55 -77.672 5.22581e-15
      vertex 58 -45.668 1.30645e-15
    endloop
  endfacet
  facet normal 0 -1.22465e-16 -1
    outer loop
      vertex 43 -45.668 1.30645e-15
      vertex 107.78 -25.8 -1.12668e-15
      vertex 46 -45.668 1.30645e-15
    endloop
  endfacet
  facet normal 0 -1.22465e-16 -1
    outer loop
      vertex 43 -77.672 5.22581e-15
      vertex 46 -77.672 5.22581e-15
      vertex 107.78 -97.54 7.65894e-15
    endloop
  endfacet
  facet normal 0 -1.22465e-16 -1
    outer loop
      vertex 46 -77.672 5.22581e-15
      vertex 49 -77.672 5.22581e-15
      vertex 107.78 -97.54 7.65894e-15
    endloop
  endfacet
  facet normal 0 -1.22465e-16 -1
    outer loop
      vertex 46 -45.668 1.30645e-15
      vertex 107.78 -25.8 -1.12668e-15
      vertex 49 -45.668 1.30645e-15
    endloop
  endfacet
  facet normal 0 -1.22465e-16 -1
    outer loop
      vertex 46 -77.672 5.22581e-15
      vertex 43 -77.672 5.22581e-15
      vertex 46 -45.668 1.30645e-15
    endloop
  endfacet
  facet normal 0 -1.22465e-16 -1
    outer loop
      vertex 49 -45.668 1.30645e-15
      vertex 107.78 -25.8 -1.12668e-15
      vertex 52 -45.668 1.30645e-15
    endloop
  endfacet
  facet normal 0 -1.22465e-16 -1
    outer loop
      vertex 49 -77.672 5.22581e-15
      vertex 52 -77.672 5.22581e-15
      vertex 107.78 -97.54 7.65894e-15
    endloop
  endfacet
  facet normal 0 -1.22465e-16 -1
    outer loop
      vertex 52 -77.672 5.22581e-15
      vertex 55 -77.672 5.22581e-15
      vertex 107.78 -97.54 7.65894e-15
    endloop
  endfacet
  facet normal 0 -1.22465e-16 -1
    outer loop
      vertex 52 -45.668 1.30645e-15
      vertex 107.78 -25.8 -1.12668e-15
      vertex 55 -45.668 1.30645e-15
    endloop
  endfacet
  facet normal 0 -1.22465e-16 -1
    outer loop
      vertex 34 -77.672 5.22581e-15
      vertex 31 -77.672 5.22581e-15
      vertex 34 -45.668 1.30645e-15
    endloop
  endfacet
  facet normal 0 -1.22465e-16 -1
    outer loop
      vertex 55 -45.668 1.30645e-15
      vertex 107.78 -25.8 -1.12668e-15
      vertex 58 -45.668 1.30645e-15
    endloop
  endfacet
  facet normal 0 -1.22465e-16 -1
    outer loop
      vertex 61 -45.668 1.30645e-15
      vertex 107.78 -25.8 -1.12668e-15
      vertex 61 -77.672 5.22581e-15
    endloop
  endfacet
  facet normal 0 -1.22465e-16 -1
    outer loop
      vertex 55 -77.672 5.22581e-15
      vertex 58 -77.672 5.22581e-15
      vertex 107.78 -97.54 7.65894e-15
    endloop
  endfacet
  facet normal 0 -1.22465e-16 -1
    outer loop
      vertex 58 -77.672 5.22581e-15
      vertex 61 -77.672 5.22581e-15
      vertex 107.78 -97.54 7.65894e-15
    endloop
  endfacet
  facet normal 0 -1.22465e-16 -1
    outer loop
      vertex 58 -45.668 1.30645e-15
      vertex 107.78 -25.8 -1.12668e-15
      vertex 61 -45.668 1.30645e-15
    endloop
  endfacet
  facet normal 0 -1.22465e-16 -1
    outer loop
      vertex 22 -77.672 5.22581e-15
      vertex 19 -77.672 5.22581e-15
      vertex 22 -45.668 1.30645e-15
    endloop
  endfacet
  facet normal 0 -1.22465e-16 -1
    outer loop
      vertex 43 -45.668 1.30645e-15
      vertex 46 -45.668 1.30645e-15
      vertex 43 -77.672 5.22581e-15
    endloop
  endfacet
  facet normal 0 -1.22465e-16 -1
    outer loop
      vertex 37 -45.668 1.30645e-15
      vertex 40 -45.668 1.30645e-15
      vertex 37 -77.672 5.22581e-15
    endloop
  endfacet
  facet normal 0 -1.22465e-16 -1
    outer loop
      vertex 31 -45.668 1.30645e-15
      vertex 34 -45.668 1.30645e-15
      vertex 31 -77.672 5.22581e-15
    endloop
  endfacet
  facet normal 0 -1.22465e-16 -1
    outer loop
      vertex 25 -45.668 1.30645e-15
      vertex 28 -45.668 1.30645e-15
      vertex 25 -77.672 5.22581e-15
    endloop
  endfacet
  facet normal 0 -1.22465e-16 -1
    outer loop
      vertex 19 -45.668 1.30645e-15
      vertex 22 -45.668 1.30645e-15
      vertex 19 -77.672 5.22581e-15
    endloop
  endfacet
  facet normal 0 -1.22465e-16 -1
    outer loop
      vertex 13 -45.668 1.30645e-15
      vertex 16 -45.668 1.30645e-15
      vertex 13 -77.672 5.22581e-15
    endloop
  endfacet
  facet normal 1 0 0
    outer loop
      vertex 107.78 -25.8 -1.12668e-15
      vertex 107.78 -25.8 1
      vertex 107.78 -97.54 1
    endloop
  endfacet
  facet normal 1 0 0
    outer loop
      vertex 107.78 -97.54 7.65894e-15
      vertex 107.78 -25.8 -1.12668e-15
      vertex 107.78 -97.54 1
    endloop
  endfacet
  facet normal -1 0 0
    outer loop
      vertex -6.4 -28.6 9
      vertex -6.4 -28.6 1
      vertex -6.4 -94.74 9
    endloop
  endfacet
  facet normal -1 0 0
    outer loop
      vertex -6.4 -94.74 9
      vertex -6.4 -28.6 1
      vertex -6.4 -94.74 1
    endloop
  endfacet
  facet normal 0 -1 1.22465e-16
    outer loop
      vertex -4.2 -94.74 9
      vertex -6.4 -94.74 9
      vertex -6.4 -94.74 1
    endloop
  endfacet
  facet normal 0 -1 1.22465e-16
    outer loop
      vertex -4.2 -94.74 1
      vertex -4.2 -94.74 9
      vertex -6.4 -94.74 1
    endloop
  endfacet
  facet normal 1 0 0
    outer loop
      vertex -4.2 -28.6 1
      vertex -4.2 -28.6 9
      vertex -4.2 -94.74 9
    endloop
  endfacet
  facet normal 1 0 0
    outer loop
      vertex -4.2 -94.74 1
      vertex -4.2 -28.6 1
      vertex -4.2 -94.74 9
    endloop
  endfacet
  facet normal 0 1 -1.22465e-16
    outer loop
      vertex -6.4 -28.6 9
      vertex -4.2 -28.6 9
      vertex -6.4 -28.6 1
    endloop
  endfacet
  facet normal 0 1 -1.22465e-16
    outer loop
      vertex -6.4 -28.6 1
      vertex -4.2 -28.6 9
      vertex -4.2 -28.6 1
    endloop
  endfacet
  facet normal -1 0 0
    outer loop
      vertex -4.2 -28.6 9
      vertex -4.2 -28.6 1
      vertex -4.2 -30.8 9
    endloop
  endfacet
  facet normal -1 0 0
    outer loop
      vertex -4.2 -30.8 9
      vertex -4.2 -28.6 1
      vertex -4.2 -30.8 1
    endloop
  endfacet
  facet normal 0 -1 1.22465e-16
    outer loop
      vertex 102.78 -30.8 9
      vertex -4.2 -30.8 9
      vertex -4.2 -30.8 1
    endloop
  endfacet
  facet normal 0 -1 1.22465e-16
    outer loop
      vertex 102.78 -30.8 1
      vertex 102.78 -30.8 9
      vertex -4.2 -30.8 1
    endloop
  endfacet
  facet normal 1 0 0
    outer loop
      vertex 102.78 -28.6 1
      vertex 102.78 -28.6 9
      vertex 102.78 -30.8 9
    endloop
  endfacet
  facet normal 1 0 0
    outer loop
      vertex 102.78 -30.8 1
      vertex 102.78 -28.6 1
      vertex 102.78 -30.8 9
    endloop
  endfacet
  facet normal 0 1 -1.22465e-16
    outer loop
      vertex -4.2 -28.6 9
      vertex 6 -28.6 9
      vertex -4.2 -28.6 1
    endloop
  endfacet
  facet normal 0 1 -1.22465e-16
    outer loop
      vertex -4.2 -28.6 1
      vertex 6 -28.6 9
      vertex 6 -28.6 7.8
    endloop
  endfacet
  facet normal 0 1 -1.22465e-16
    outer loop
      vertex -4.2 -28.6 1
      vertex 6 -28.6 7.8
      vertex 10 -28.6 7.8
    endloop
  endfacet
  facet normal 0 1 -1.22465e-16
    outer loop
      vertex 10 -28.6 7.8
      vertex 10 -28.6 9
      vertex 88.58 -28.6 9
    endloop
  endfacet
  facet normal 0 1 -1.22465e-16
    outer loop
      vertex 10 -28.6 7.8
      vertex 88.58 -28.6 9
      vertex -4.2 -28.6 1
    endloop
  endfacet
  facet normal 0 1 -1.22465e-16
    outer loop
      vertex -4.2 -28.6 1
      vertex 88.58 -28.6 9
      vertex 88.58 -28.6 7.8
    endloop
  endfacet
  facet normal 0 1 -1.22465e-16
    outer loop
      vertex -4.2 -28.6 1
      vertex 88.58 -28.6 7.8
      vertex 92.58 -28.6 7.8
    endloop
  endfacet
  facet normal 0 1 -1.22465e-16
    outer loop
      vertex 92.58 -28.6 7.8
      vertex 92.58 -28.6 9
      vertex 102.78 -28.6 9
    endloop
  endfacet
  facet normal 0 1 -1.22465e-16
    outer loop
      vertex 92.58 -28.6 7.8
      vertex 102.78 -28.6 9
      vertex 102.78 -28.6 1
    endloop
  endfacet
  facet normal 0 1 -1.22465e-16
    outer loop
      vertex 92.58 -28.6 7.8
      vertex 102.78 -28.6 1
      vertex -4.2 -28.6 1
    endloop
  endfacet
  facet normal -1 0 0
    outer loop
      vertex -4.2 -92.54 9
      vertex -4.2 -92.54 1
      vertex -4.2 -94.74 9
    endloop
  endfacet
  facet normal -1 0 0
    outer loop
      vertex -4.2 -94.74 9
      vertex -4.2 -92.54 1
      vertex -4.2 -94.74 1
    endloop
  endfacet
  facet normal 0 -1 1.22465e-16
    outer loop
      vertex 6 -94.74 9
      vertex -4.2 -94.74 9
      vertex -4.2 -94.74 1
    endloop
  endfacet
  facet normal 0 -1 1.22465e-16
    outer loop
      vertex 6 -94.74 7.8
      vertex 6 -94.74 9
      vertex -4.2 -94.74 1
    endloop
  endfacet
  facet normal 0 -1 1.22465e-16
    outer loop
      vertex 102.78 -94.74 9
      vertex 92.58 -94.74 9
      vertex 102.78 -94.74 1
    endloop
  endfacet
  facet normal 0 -1 1.22465e-16
    outer loop
      vertex 92.58 -94.74 9
      vertex 92.58 -94.74 7.8
      vertex 102.78 -94.74 1
    endloop
  endfacet
  facet normal 0 -1 1.22465e-16
    outer loop
      vertex 10 -94.74 9
      vertex 102.78 -94.74 1
      vertex 88.58 -94.74 7.8
    endloop
  endfacet
  facet normal 0 -1 1.22465e-16
    outer loop
      vertex 92.58 -94.74 7.8
      vertex 88.58 -94.74 7.8
      vertex 102.78 -94.74 1
    endloop
  endfacet
  facet normal 0 -1 1.22465e-16
    outer loop
      vertex 10 -94.74 9
      vertex 10 -94.74 7.8
      vertex 102.78 -94.74 1
    endloop
  endfacet
  facet normal 0 -1 1.22465e-16
    outer loop
      vertex 102.78 -94.74 1
      vertex 10 -94.74 7.8
      vertex -4.2 -94.74 1
    endloop
  endfacet
  facet normal 0 -1 1.22465e-16
    outer loop
      vertex 10 -94.74 7.8
      vertex 6 -94.74 7.8
      vertex -4.2 -94.74 1
    endloop
  endfacet
  facet normal 0 -1 1.22465e-16
    outer loop
      vertex 88.58 -94.74 7.8
      vertex 88.58 -94.74 9
      vertex 10 -94.74 9
    endloop
  endfacet
  facet normal 1 0 0
    outer loop
      vertex 102.78 -92.54 1
      vertex 102.78 -92.54 9
      vertex 102.78 -94.74 9
    endloop
  endfacet
  facet normal 1 0 0
    outer loop
      vertex 102.78 -94.74 1
      vertex 102.78 -92.54 1
      vertex 102.78 -94.74 9
    endloop
  endfacet
  facet normal 0 1 -1.22465e-16
    outer loop
      vertex -4.2 -92.54 9
      vertex 102.78 -92.54 9
      vertex -4.2 -92.54 1
    endloop
  endfacet
  facet normal 0 1 -1.22465e-16
    outer loop
      vertex -4.2 -92.54 1
      vertex 102.78 -92.54 9
      vertex 102.78 -92.54 1
    endloop
  endfacet
  facet normal 1 0 0
    outer loop
      vertex 10 -77.672 1
      vertex 10 -77.672 5.22581e-15
      vertex 10 -45.668 1.30645e-15
    endloop
  endfacet
  facet normal 1 0 0
    outer loop
      vertex 10 -45.668 1
      vertex 10 -77.672 1
      vertex 10 -45.668 1.30645e-15
    endloop
  endfacet
  facet normal 0 1 -1.22465e-16
    outer loop
      vertex 13 -77.672 5.22581e-15
      vertex 10 -77.672 5.22581e-15
      vertex 13 -77.672 1
    endloop
  endfacet
  facet normal 0 1 -1.22465e-16
    outer loop
      vertex 13 -77.672 1
      vertex 10 -77.672 5.22581e-15
      vertex 10 -77.672 1
    endloop
  endfacet
  facet normal -1 0 0
    outer loop
      vertex 13 -77.672 5.22581e-15
      vertex 13 -77.672 1
      vertex 13 -45.668 1.30645e-15
    endloop
  endfacet
  facet normal -1 0 0
    outer loop
      vertex 13 -45.668 1.30645e-15
      vertex 13 -77.672 1
      vertex 13 -45.668 1
    endloop
  endfacet
  facet normal 0 -1 1.22465e-16
    outer loop
      vertex 10 -45.668 1.30645e-15
      vertex 13 -45.668 1.30645e-15
      vertex 13 -45.668 1
    endloop
  endfacet
  facet normal 0 -1 1.22465e-16
    outer loop
      vertex 10 -45.668 1
      vertex 10 -45.668 1.30645e-15
      vertex 13 -45.668 1
    endloop
  endfacet
  facet normal 1 0 0
    outer loop
      vertex 16 -77.672 1
      vertex 16 -77.672 5.22581e-15
      vertex 16 -45.668 1.30645e-15
    endloop
  endfacet
  facet normal 1 0 0
    outer loop
      vertex 16 -45.668 1
      vertex 16 -77.672 1
      vertex 16 -45.668 1.30645e-15
    endloop
  endfacet
  facet normal 0 1 -1.22465e-16
    outer loop
      vertex 19 -77.672 5.22581e-15
      vertex 16 -77.672 5.22581e-15
      vertex 19 -77.672 1
    endloop
  endfacet
  facet normal 0 1 -1.22465e-16
    outer loop
      vertex 19 -77.672 1
      vertex 16 -77.672 5.22581e-15
      vertex 16 -77.672 1
    endloop
  endfacet
  facet normal -1 0 0
    outer loop
      vertex 19 -77.672 5.22581e-15
      vertex 19 -77.672 1
      vertex 19 -45.668 1.30645e-15
    endloop
  endfacet
  facet normal -1 0 0
    outer loop
      vertex 19 -45.668 1.30645e-15
      vertex 19 -77.672 1
      vertex 19 -45.668 1
    endloop
  endfacet
  facet normal 0 -1 1.22465e-16
    outer loop
      vertex 16 -45.668 1.30645e-15
      vertex 19 -45.668 1.30645e-15
      vertex 19 -45.668 1
    endloop
  endfacet
  facet normal 0 -1 1.22465e-16
    outer loop
      vertex 16 -45.668 1
      vertex 16 -45.668 1.30645e-15
      vertex 19 -45.668 1
    endloop
  endfacet
  facet normal 1 0 0
    outer loop
      vertex 22 -77.672 1
      vertex 22 -77.672 5.22581e-15
      vertex 22 -45.668 1.30645e-15
    endloop
  endfacet
  facet normal 1 0 0
    outer loop
      vertex 22 -45.668 1
      vertex 22 -77.672 1
      vertex 22 -45.668 1.30645e-15
    endloop
  endfacet
  facet normal 0 1 -1.22465e-16
    outer loop
      vertex 25 -77.672 5.22581e-15
      vertex 22 -77.672 5.22581e-15
      vertex 25 -77.672 1
    endloop
  endfacet
  facet normal 0 1 -1.22465e-16
    outer loop
      vertex 25 -77.672 1
      vertex 22 -77.672 5.22581e-15
      vertex 22 -77.672 1
    endloop
  endfacet
  facet normal -1 0 0
    outer loop
      vertex 25 -77.672 5.22581e-15
      vertex 25 -77.672 1
      vertex 25 -45.668 1.30645e-15
    endloop
  endfacet
  facet normal -1 0 0
    outer loop
      vertex 25 -45.668 1.30645e-15
      vertex 25 -77.672 1
      vertex 25 -45.668 1
    endloop
  endfacet
  facet normal 0 -1 1.22465e-16
    outer loop
      vertex 22 -45.668 1.30645e-15
      vertex 25 -45.668 1.30645e-15
      vertex 25 -45.668 1
    endloop
  endfacet
  facet normal 0 -1 1.22465e-16
    outer loop
      vertex 22 -45.668 1
      vertex 22 -45.668 1.30645e-15
      vertex 25 -45.668 1
    endloop
  endfacet
  facet normal 1 0 0
    outer loop
      vertex 28 -77.672 1
      vertex 28 -77.672 5.22581e-15
      vertex 28 -45.668 1.30645e-15
    endloop
  endfacet
  facet normal 1 0 0
    outer loop
      vertex 28 -45.668 1
      vertex 28 -77.672 1
      vertex 28 -45.668 1.30645e-15
    endloop
  endfacet
  facet normal 0 1 -1.22465e-16
    outer loop
      vertex 31 -77.672 5.22581e-15
      vertex 28 -77.672 5.22581e-15
      vertex 31 -77.672 1
    endloop
  endfacet
  facet normal 0 1 -1.22465e-16
    outer loop
      vertex 31 -77.672 1
      vertex 28 -77.672 5.22581e-15
      vertex 28 -77.672 1
    endloop
  endfacet
  facet normal -1 0 0
    outer loop
      vertex 31 -77.672 5.22581e-15
      vertex 31 -77.672 1
      vertex 31 -45.668 1.30645e-15
    endloop
  endfacet
  facet normal -1 0 0
    outer loop
      vertex 31 -45.668 1.30645e-15
      vertex 31 -77.672 1
      vertex 31 -45.668 1
    endloop
  endfacet
  facet normal 0 -1 1.22465e-16
    outer loop
      vertex 28 -45.668 1.30645e-15
      vertex 31 -45.668 1.30645e-15
      vertex 31 -45.668 1
    endloop
  endfacet
  facet normal 0 -1 1.22465e-16
    outer loop
      vertex 28 -45.668 1
      vertex 28 -45.668 1.30645e-15
      vertex 31 -45.668 1
    endloop
  endfacet
  facet normal 1 0 0
    outer loop
      vertex 34 -77.672 1
      vertex 34 -77.672 5.22581e-15
      vertex 34 -45.668 1.30645e-15
    endloop
  endfacet
  facet normal 1 0 0
    outer loop
      vertex 34 -45.668 1
      vertex 34 -77.672 1
      vertex 34 -45.668 1.30645e-15
    endloop
  endfacet
  facet normal 0 1 -1.22465e-16
    outer loop
      vertex 37 -77.672 5.22581e-15
      vertex 34 -77.672 5.22581e-15
      vertex 37 -77.672 1
    endloop
  endfacet
  facet normal 0 1 -1.22465e-16
    outer loop
      vertex 37 -77.672 1
      vertex 34 -77.672 5.22581e-15
      vertex 34 -77.672 1
    endloop
  endfacet
  facet normal -1 0 0
    outer loop
      vertex 37 -77.672 5.22581e-15
      vertex 37 -77.672 1
      vertex 37 -45.668 1.30645e-15
    endloop
  endfacet
  facet normal -1 0 0
    outer loop
      vertex 37 -45.668 1.30645e-15
      vertex 37 -77.672 1
      vertex 37 -45.668 1
    endloop
  endfacet
  facet normal 0 -1 1.22465e-16
    outer loop
      vertex 34 -45.668 1.30645e-15
      vertex 37 -45.668 1.30645e-15
      vertex 37 -45.668 1
    endloop
  endfacet
  facet normal 0 -1 1.22465e-16
    outer loop
      vertex 34 -45.668 1
      vertex 34 -45.668 1.30645e-15
      vertex 37 -45.668 1
    endloop
  endfacet
  facet normal 1 0 0
    outer loop
      vertex 40 -77.672 1
      vertex 40 -77.672 5.22581e-15
      vertex 40 -45.668 1.30645e-15
    endloop
  endfacet
  facet normal 1 0 0
    outer loop
      vertex 40 -45.668 1
      vertex 40 -77.672 1
      vertex 40 -45.668 1.30645e-15
    endloop
  endfacet
  facet normal 0 1 -1.22465e-16
    outer loop
      vertex 43 -77.672 5.22581e-15
      vertex 40 -77.672 5.22581e-15
      vertex 43 -77.672 1
    endloop
  endfacet
  facet normal 0 1 -1.22465e-16
    outer loop
      vertex 43 -77.672 1
      vertex 40 -77.672 5.22581e-15
      vertex 40 -77.672 1
    endloop
  endfacet
  facet normal -1 0 0
    outer loop
      vertex 43 -77.672 5.22581e-15
      vertex 43 -77.672 1
      vertex 43 -45.668 1.30645e-15
    endloop
  endfacet
  facet normal -1 0 0
    outer loop
      vertex 43 -45.668 1.30645e-15
      vertex 43 -77.672 1
      vertex 43 -45.668 1
    endloop
  endfacet
  facet normal 0 -1 1.22465e-16
    outer loop
      vertex 40 -45.668 1.30645e-15
      vertex 43 -45.668 1.30645e-15
      vertex 43 -45.668 1
    endloop
  endfacet
  facet normal 0 -1 1.22465e-16
    outer loop
      vertex 40 -45.668 1
      vertex 40 -45.668 1.30645e-15
      vertex 43 -45.668 1
    endloop
  endfacet
  facet normal 1 0 0
    outer loop
      vertex 46 -77.672 1
      vertex 46 -77.672 5.22581e-15
      vertex 46 -45.668 1.30645e-15
    endloop
  endfacet
  facet normal 1 0 0
    outer loop
      vertex 46 -45.668 1
      vertex 46 -77.672 1
      vertex 46 -45.668 1.30645e-15
    endloop
  endfacet
  facet normal 0 1 -1.22465e-16
    outer loop
      vertex 49 -77.672 5.22581e-15
      vertex 46 -77.672 5.22581e-15
      vertex 49 -77.672 1
    endloop
  endfacet
  facet normal 0 1 -1.22465e-16
    outer loop
      vertex 49 -77.672 1
      vertex 46 -77.672 5.22581e-15
      vertex 46 -77.672 1
    endloop
  endfacet
  facet normal -1 0 0
    outer loop
      vertex 49 -77.672 5.22581e-15
      vertex 49 -77.672 1
      vertex 49 -45.668 1.30645e-15
    endloop
  endfacet
  facet normal -1 0 0
    outer loop
      vertex 49 -45.668 1.30645e-15
      vertex 49 -77.672 1
      vertex 49 -45.668 1
    endloop
  endfacet
  facet normal 0 -1 1.22465e-16
    outer loop
      vertex 46 -45.668 1.30645e-15
      vertex 49 -45.668 1.30645e-15
      vertex 49 -45.668 1
    endloop
  endfacet
  facet normal 0 -1 1.22465e-16
    outer loop
      vertex 46 -45.668 1
      vertex 46 -45.668 1.30645e-15
      vertex 49 -45.668 1
    endloop
  endfacet
  facet normal 1 0 0
    outer loop
      vertex 52 -77.672 1
      vertex 52 -77.672 5.22581e-15
      vertex 52 -45.668 1.30645e-15
    endloop
  endfacet
  facet normal 1 0 0
    outer loop
      vertex 52 -45.668 1
      vertex 52 -77.672 1
      vertex 52 -45.668 1.30645e-15
    endloop
  endfacet
  facet normal 0 1 -1.22465e-16
    outer loop
      vertex 55 -77.672 5.22581e-15
      vertex 52 -77.672 5.22581e-15
      vertex 55 -77.672 1
    endloop
  endfacet
  facet normal 0 1 -1.22465e-16
    outer loop
      vertex 55 -77.672 1
      vertex 52 -77.672 5.22581e-15
      vertex 52 -77.672 1
    endloop
  endfacet
  facet normal -1 0 0
    outer loop
      vertex 55 -77.672 5.22581e-15
      vertex 55 -77.672 1
      vertex 55 -45.668 1.30645e-15
    endloop
  endfacet
  facet normal -1 0 0
    outer loop
      vertex 55 -45.668 1.30645e-15
      vertex 55 -77.672 1
      vertex 55 -45.668 1
    endloop
  endfacet
  facet normal 0 -1 1.22465e-16
    outer loop
      vertex 52 -45.668 1.30645e-15
      vertex 55 -45.668 1.30645e-15
      vertex 55 -45.668 1
    endloop
  endfacet
  facet normal 0 -1 1.22465e-16
    outer loop
      vertex 52 -45.668 1
      vertex 52 -45.668 1.30645e-15
      vertex 55 -45.668 1
    endloop
  endfacet
  facet normal 1 0 0
    outer loop
      vertex 58 -77.672 1
      vertex 58 -77.672 5.22581e-15
      vertex 58 -45.668 1.30645e-15
    endloop
  endfacet
  facet normal 1 0 0
    outer loop
      vertex 58 -45.668 1
      vertex 58 -77.672 1
      vertex 58 -45.668 1.30645e-15
    endloop
  endfacet
  facet normal 0 1 -1.22465e-16
    outer loop
      vertex 61 -77.672 5.22581e-15
      vertex 58 -77.672 5.22581e-15
      vertex 61 -77.672 1
    endloop
  endfacet
  facet normal 0 1 -1.22465e-16
    outer loop
      vertex 61 -77.672 1
      vertex 58 -77.672 5.22581e-15
      vertex 58 -77.672 1
    endloop
  endfacet
  facet normal -1 0 0
    outer loop
      vertex 61 -77.672 5.22581e-15
      vertex 61 -77.672 1
      vertex 61 -45.668 1.30645e-15
    endloop
  endfacet
  facet normal -1 0 0
    outer loop
      vertex 61 -45.668 1.30645e-15
      vertex 61 -77.672 1
      vertex 61 -45.668 1
    endloop
  endfacet
  facet normal 0 -1 1.22465e-16
    outer loop
      vertex 58 -45.668 1.30645e-15
      vertex 61 -45.668 1.30645e-15
      vertex 61 -45.668 1
    endloop
  endfacet
  facet normal 0 -1 1.22465e-16
    outer loop
      vertex 58 -45.668 1
      vertex 58 -45.668 1.30645e-15
      vertex 61 -45.668 1
    endloop
  endfacet
  facet normal -1 0 0
    outer loop
      vertex 102.78 -28.6 9
      vertex 102.78 -28.6 1
      vertex 102.78 -94.74 9
    endloop
  endfacet
  facet normal -1 0 0
    outer loop
      vertex 102.78 -94.74 9
      vertex 102.78 -28.6 1
      vertex 102.78 -94.74 1
    endloop
  endfacet
  facet normal 0 -1 1.22465e-16
    outer loop
      vertex 104.98 -94.74 9
      vertex 102.78 -94.74 9
      vertex 102.78 -94.74 1
    endloop
  endfacet
  facet normal 0 -1 1.22465e-16
    outer loop
      vertex 104.98 -94.74 1
      vertex 104.98 -94.74 9
      vertex 102.78 -94.74 1
    endloop
  endfacet
  facet normal 1 0 0
    outer loop
      vertex 104.98 -28.6 1
      vertex 104.98 -28.6 9
      vertex 104.98 -94.74 9
    endloop
  endfacet
  facet normal 1 0 0
    outer loop
      vertex 104.98 -94.74 1
      vertex 104.98 -28.6 1
      vertex 104.98 -94.74 9
    endloop
  endfacet
  facet normal 0 1 -1.22465e-16
    outer loop
      vertex 102.78 -28.6 9
      vertex 104.98 -28.6 9
      vertex 102.78 -28.6 1
    endloop
  endfacet
  facet normal 0 1 -1.22465e-16
    outer loop
      vertex 102.78 -28.6 1
      vertex 104.98 -28.6 9
      vertex 104.98 -28.6 1
    endloop
  endfacet
  facet normal 0 1.22465e-16 1
    outer loop
      vertex -4.2 -28.6 9
      vertex -6.4 -28.6 9
      vertex -6.4 -94.74 9
    endloop
  endfacet
  facet normal 0 1.22465e-16 1
    outer loop
      vertex -4.2 -94.74 9
      vertex -4.2 -28.6 9
      vertex -6.4 -94.74 9
    endloop
  endfacet
  facet normal 0 1.22465e-16 1
    outer loop
      vertex 6 -28.6 9
      vertex -4.2 -28.6 9
      vertex -4.2 -30.8 9
    endloop
  endfacet
  facet normal 0 1.22465e-16 1
    outer loop
      vertex 92.58 -28.6 9
      vertex 88.58 -28.6 9
      vertex 102.78 -30.8 9
    endloop
  endfacet
  facet normal 0 1.22465e-16 1
    outer loop
      vertex 102.78 -30.8 9
      vertex 6 -28.6 9
      vertex -4.2 -30.8 9
    endloop
  endfacet
  facet normal 0 1.22465e-16 1
    outer loop
      vertex 88.58 -28.6 9
      vertex 10 -28.6 9
      vertex 102.78 -30.8 9
    endloop
  endfacet
  facet normal 0 1.22465e-16 1
    outer loop
      vertex 102.78 -28.6 9
      vertex 92.58 -28.6 9
      vertex 102.78 -30.8 9
    endloop
  endfacet
  facet normal 0 1.22465e-16 1
    outer loop
      vertex 92.58 -27.7 9
      vertex 88.58 -28.6 9
      vertex 92.58 -28.6 9
    endloop
  endfacet
  facet normal 0 1.22465e-16 1
    outer loop
      vertex 10 -28.6 9
      vertex 6 -28.6 9
      vertex 102.78 -30.8 9
    endloop
  endfacet
  facet normal 0 1.22465e-16 1
    outer loop
      vertex 10 -28.6 9
      vertex 10 -27.7 9
      vertex 6 -28.6 9
    endloop
  endfacet
  facet normal 0 1.22465e-16 1
    outer loop
      vertex 88.58 -27.7 9
      vertex 88.58 -28.6 9
      vertex 92.58 -27.7 9
    endloop
  endfacet
  facet normal 0 1.22465e-16 1
    outer loop
      vertex 6 -27.7 9
      vertex 6 -28.6 9
      vertex 10 -27.7 9
    endloop
  endfacet
  facet normal 1 0 0
    outer loop
      vertex 92.58 -27.7 7.8
      vertex 92.58 -27.7 9
      vertex 92.58 -28.6 9
    endloop
  endfacet
  facet normal 1 0 0
    outer loop
      vertex 92.58 -28.6 7.8
      vertex 92.58 -27.7 7.8
      vertex 92.58 -28.6 9
    endloop
  endfacet
  facet normal 0 -1.22465e-16 -1
    outer loop
      vertex 88.58 -27.7 7.8
      vertex 92.58 -27.7 7.8
      vertex 88.58 -28.6 7.8
    endloop
  endfacet
  facet normal 0 -1.22465e-16 -1
    outer loop
      vertex 88.58 -28.6 7.8
      vertex 92.58 -27.7 7.8
      vertex 92.58 -28.6 7.8
    endloop
  endfacet
  facet normal -1 0 0
    outer loop
      vertex 88.58 -27.7 9
      vertex 88.58 -27.7 7.8
      vertex 88.58 -28.6 9
    endloop
  endfacet
  facet normal -1 0 0
    outer loop
      vertex 88.58 -28.6 9
      vertex 88.58 -27.7 7.8
      vertex 88.58 -28.6 7.8
    endloop
  endfacet
  facet normal 1 0 0
    outer loop
      vertex 10 -27.7 7.8
      vertex 10 -27.7 9
      vertex 10 -28.6 9
    endloop
  endfacet
  facet normal 1 0 0
    outer loop
      vertex 10 -28.6 7.8
      vertex 10 -27.7 7.8
      vertex 10 -28.6 9
    endloop
  endfacet
  facet normal 0 -1.22465e-16 -1
    outer loop
      vertex 6 -27.7 7.8
      vertex 10 -27.7 7.8
      vertex 6 -28.6 7.8
    endloop
  endfacet
  facet normal 0 -1.22465e-16 -1
    outer loop
      vertex 6 -28.6 7.8
      vertex 10 -27.7 7.8
      vertex 10 -28.6 7.8
    endloop
  endfacet
  facet normal -1 0 0
    outer loop
      vertex 6 -27.7 9
      vertex 6 -27.7 7.8
      vertex 6 -28.6 9
    endloop
  endfacet
  facet normal -1 0 0
    outer loop
      vertex 6 -28.6 9
      vertex 6 -27.7 7.8
      vertex 6 -28.6 7.8
    endloop
  endfacet
  facet normal 0 1.22465e-16 1
    outer loop
      vertex 102.78 -92.54 9
      vertex -4.2 -92.54 9
      vertex -4.2 -94.74 9
    endloop
  endfacet
  facet normal 0 1.22465e-16 1
    outer loop
      vertex 10 -94.74 9
      vertex 102.78 -92.54 9
      vertex 6 -94.74 9
    endloop
  endfacet
  facet normal 0 1.22465e-16 1
    outer loop
      vertex 6 -94.74 9
      vertex 102.78 -92.54 9
      vertex -4.2 -94.74 9
    endloop
  endfacet
  facet normal 0 1.22465e-16 1
    outer loop
      vertex 10 -94.74 9
      vertex 88.58 -94.74 9
      vertex 102.78 -92.54 9
    endloop
  endfacet
  facet normal 0 1.22465e-16 1
    outer loop
      vertex 6 -95.64 9
      vertex 10 -94.74 9
      vertex 6 -94.74 9
    endloop
  endfacet
  facet normal 0 1.22465e-16 1
    outer loop
      vertex 92.58 -94.74 9
      vertex 102.78 -92.54 9
      vertex 88.58 -94.74 9
    endloop
  endfacet
  facet normal 0 1.22465e-16 1
    outer loop
      vertex 92.58 -94.74 9
      vertex 102.78 -94.74 9
      vertex 102.78 -92.54 9
    endloop
  endfacet
  facet normal 0 1.22465e-16 1
    outer loop
      vertex 88.58 -95.64 9
      vertex 92.58 -94.74 9
      vertex 88.58 -94.74 9
    endloop
  endfacet
  facet normal 0 1.22465e-16 1
    outer loop
      vertex 92.58 -95.64 9
      vertex 92.58 -94.74 9
      vertex 88.58 -95.64 9
    endloop
  endfacet
  facet normal 0 1.22465e-16 1
    outer loop
      vertex 10 -95.64 9
      vertex 10 -94.74 9
      vertex 6 -95.64 9
    endloop
  endfacet
  facet normal -1 0 0
    outer loop
      vertex 6 -94.74 9
      vertex 6 -94.74 7.8
      vertex 6 -95.64 9
    endloop
  endfacet
  facet normal -1 0 0
    outer loop
      vertex 6 -95.64 9
      vertex 6 -94.74 7.8
      vertex 6 -95.64 7.8
    endloop
  endfacet
  facet normal 0 -1.22465e-16 -1
    outer loop
      vertex 6 -94.74 7.8
      vertex 10 -94.74 7.8
      vertex 6 -95.64 7.8
    endloop
  endfacet
  facet normal 0 -1.22465e-16 -1
    outer loop
      vertex 6 -95.64 7.8
      vertex 10 -94.74 7.8
      vertex 10 -95.64 7.8
    endloop
  endfacet
  facet normal 1 0 0
    outer loop
      vertex 10 -94.74 7.8
      vertex 10 -94.74 9
      vertex 10 -95.64 9
    endloop
  endfacet
  facet normal 1 0 0
    outer loop
      vertex 10 -95.64 7.8
      vertex 10 -94.74 7.8
      vertex 10 -95.64 9
    endloop
  endfacet
  facet normal -1 0 0
    outer loop
      vertex 88.58 -94.74 9
      vertex 88.58 -94.74 7.8
      vertex 88.58 -95.64 9
    endloop
  endfacet
  facet normal -1 0 0
    outer loop
      vertex 88.58 -95.64 9
      vertex 88.58 -94.74 7.8
      vertex 88.58 -95.64 7.8
    endloop
  endfacet
  facet normal 0 -1.22465e-16 -1
    outer loop
      vertex 88.58 -94.74 7.8
      vertex 92.58 -94.74 7.8
      vertex 88.58 -95.64 7.8
    endloop
  endfacet
  facet normal 0 -1.22465e-16 -1
    outer loop
      vertex 88.58 -95.64 7.8
      vertex 92.58 -94.74 7.8
      vertex 92.58 -95.64 7.8
    endloop
  endfacet
  facet normal 1 0 0
    outer loop
      vertex 92.58 -94.74 7.8
      vertex 92.58 -94.74 9
      vertex 92.58 -95.64 9
    endloop
  endfacet
  facet normal 1 0 0
    outer loop
      vertex 92.58 -95.64 7.8
      vertex 92.58 -94.74 7.8
      vertex 92.58 -95.64 9
    endloop
  endfacet
  facet normal 0 1.22465e-16 1
    outer loop
      vertex 104.98 -28.6 9
      vertex 102.78 -28.6 9
      vertex 102.78 -94.74 9
    endloop
  endfacet
  facet normal 0 1.22465e-16 1
    outer loop
      vertex 104.98 -94.74 9
      vertex 104.98 -28.6 9
      vertex 102.78 -94.74 9
    endloop
  endfacet
  facet normal 0 1 -1.22465e-16
    outer loop
      vertex 6 -27.7 9
      vertex 10 -27.7 9
      vertex 6 -27.7 7.8
    endloop
  endfacet
  facet normal 0 1 -1.22465e-16
    outer loop
      vertex 6 -27.7 7.8
      vertex 10 -27.7 9
      vertex 10 -27.7 7.8
    endloop
  endfacet
  facet normal 0 1 -1.22465e-16
    outer loop
      vertex 88.58 -27.7 9
      vertex 92.58 -27.7 9
      vertex 88.58 -27.7 7.8
    endloop
  endfacet
  facet normal 0 1 -1.22465e-16
    outer loop
      vertex 88.58 -27.7 7.8
      vertex 92.58 -27.7 9
      vertex 92.58 -27.7 7.8
    endloop
  endfacet
  facet normal 0 -1 1.22465e-16
    outer loop
      vertex 92.58 -95.64 9
      vertex 88.58 -95.64 9
      vertex 88.58 -95.64 7.8
    endloop
  endfacet
  facet normal 0 -1 1.22465e-16
    outer loop
      vertex 92.58 -95.64 7.8
      vertex 92.58 -95.64 9
      vertex 88.58 -95.64 7.8
    endloop
  endfacet
  facet normal 0 -1 1.22465e-16
    outer loop
      vertex 10 -95.64 9
      vertex 6 -95.64 9
      vertex 6 -95.64 7.8
    endloop
  endfacet
  facet normal 0 -1 1.22465e-16
    outer loop
      vertex 10 -95.64 7.8
      vertex 10 -95.64 9
      vertex 6 -95.64 7.8
    endloop
  endfacet
endsolid OpenSCAD_Model
